<mxfile host="app.diagrams.net" modified="2023-06-04T10:47:04.793Z" agent="Mozilla/5.0 (Windows NT 10.0; Win64; x64) AppleWebKit/537.36 (KHTML, like Gecko) Chrome/112.0.0.0 Safari/537.36 OPR/98.0.0.0" etag="DxsCpQDPBlipR-NLy5h-" version="21.3.7" type="device">
  <diagram name="PÃ¡gina-1" id="bqLpTnACxUS1h_Y6VDqq">
    <mxGraphModel dx="758" dy="764" grid="0" gridSize="10" guides="0" tooltips="1" connect="1" arrows="1" fold="1" page="1" pageScale="1" pageWidth="827" pageHeight="1169" math="0" shadow="0">
      <root>
        <mxCell id="0" />
        <mxCell id="1" parent="0" />
        <mxCell id="0AhiDIyF9jXENDNeL1R9-10" style="edgeStyle=orthogonalEdgeStyle;rounded=0;orthogonalLoop=1;jettySize=auto;html=1;exitX=1;exitY=0.5;exitDx=0;exitDy=0;entryX=0;entryY=0.5;entryDx=0;entryDy=0;" edge="1" parent="1" source="0AhiDIyF9jXENDNeL1R9-1" target="0AhiDIyF9jXENDNeL1R9-4">
          <mxGeometry relative="1" as="geometry" />
        </mxCell>
        <mxCell id="0AhiDIyF9jXENDNeL1R9-27" value="N" style="edgeLabel;html=1;align=center;verticalAlign=middle;resizable=0;points=[];" vertex="1" connectable="0" parent="0AhiDIyF9jXENDNeL1R9-10">
          <mxGeometry x="0.5714" y="-1" relative="1" as="geometry">
            <mxPoint x="-1" y="-1" as="offset" />
          </mxGeometry>
        </mxCell>
        <mxCell id="0AhiDIyF9jXENDNeL1R9-12" style="edgeStyle=orthogonalEdgeStyle;rounded=0;orthogonalLoop=1;jettySize=auto;html=1;entryX=0;entryY=0.5;entryDx=0;entryDy=0;" edge="1" parent="1" source="0AhiDIyF9jXENDNeL1R9-1" target="0AhiDIyF9jXENDNeL1R9-5">
          <mxGeometry relative="1" as="geometry" />
        </mxCell>
        <mxCell id="0AhiDIyF9jXENDNeL1R9-29" value="N" style="edgeLabel;html=1;align=center;verticalAlign=middle;resizable=0;points=[];" vertex="1" connectable="0" parent="0AhiDIyF9jXENDNeL1R9-12">
          <mxGeometry x="0.6" relative="1" as="geometry">
            <mxPoint as="offset" />
          </mxGeometry>
        </mxCell>
        <mxCell id="0AhiDIyF9jXENDNeL1R9-1" value="MESA" style="rounded=0;whiteSpace=wrap;html=1;" vertex="1" parent="1">
          <mxGeometry x="80" y="190" width="120" height="60" as="geometry" />
        </mxCell>
        <mxCell id="0AhiDIyF9jXENDNeL1R9-2" value="PLATOS" style="rounded=0;whiteSpace=wrap;html=1;" vertex="1" parent="1">
          <mxGeometry x="350" y="190" width="120" height="60" as="geometry" />
        </mxCell>
        <mxCell id="0AhiDIyF9jXENDNeL1R9-15" value="1" style="edgeStyle=orthogonalEdgeStyle;rounded=0;orthogonalLoop=1;jettySize=auto;html=1;entryX=0.5;entryY=1;entryDx=0;entryDy=0;" edge="1" parent="1" source="0AhiDIyF9jXENDNeL1R9-3" target="0AhiDIyF9jXENDNeL1R9-14">
          <mxGeometry relative="1" as="geometry" />
        </mxCell>
        <mxCell id="0AhiDIyF9jXENDNeL1R9-20" style="edgeStyle=orthogonalEdgeStyle;rounded=0;orthogonalLoop=1;jettySize=auto;html=1;entryX=0;entryY=0.5;entryDx=0;entryDy=0;" edge="1" parent="1" source="0AhiDIyF9jXENDNeL1R9-3" target="0AhiDIyF9jXENDNeL1R9-19">
          <mxGeometry relative="1" as="geometry" />
        </mxCell>
        <mxCell id="0AhiDIyF9jXENDNeL1R9-21" style="edgeStyle=orthogonalEdgeStyle;rounded=0;orthogonalLoop=1;jettySize=auto;html=1;entryX=0;entryY=0.5;entryDx=0;entryDy=0;" edge="1" parent="1" source="0AhiDIyF9jXENDNeL1R9-3" target="0AhiDIyF9jXENDNeL1R9-18">
          <mxGeometry relative="1" as="geometry" />
        </mxCell>
        <mxCell id="0AhiDIyF9jXENDNeL1R9-33" value="1" style="edgeLabel;html=1;align=center;verticalAlign=middle;resizable=0;points=[];" vertex="1" connectable="0" parent="0AhiDIyF9jXENDNeL1R9-21">
          <mxGeometry x="-0.4769" relative="1" as="geometry">
            <mxPoint as="offset" />
          </mxGeometry>
        </mxCell>
        <mxCell id="0AhiDIyF9jXENDNeL1R9-3" value="USUARIO" style="rounded=0;whiteSpace=wrap;html=1;" vertex="1" parent="1">
          <mxGeometry x="240" y="480" width="120" height="60" as="geometry" />
        </mxCell>
        <mxCell id="0AhiDIyF9jXENDNeL1R9-11" style="edgeStyle=orthogonalEdgeStyle;rounded=0;orthogonalLoop=1;jettySize=auto;html=1;exitX=1;exitY=0.5;exitDx=0;exitDy=0;entryX=0.5;entryY=0;entryDx=0;entryDy=0;" edge="1" parent="1" source="0AhiDIyF9jXENDNeL1R9-4" target="0AhiDIyF9jXENDNeL1R9-2">
          <mxGeometry relative="1" as="geometry" />
        </mxCell>
        <mxCell id="0AhiDIyF9jXENDNeL1R9-28" value="M" style="edgeLabel;html=1;align=center;verticalAlign=middle;resizable=0;points=[];" vertex="1" connectable="0" parent="0AhiDIyF9jXENDNeL1R9-11">
          <mxGeometry x="-0.6833" y="2" relative="1" as="geometry">
            <mxPoint as="offset" />
          </mxGeometry>
        </mxCell>
        <mxCell id="0AhiDIyF9jXENDNeL1R9-4" value="PIDE" style="rhombus;whiteSpace=wrap;html=1;" vertex="1" parent="1">
          <mxGeometry x="260" y="100" width="80" height="80" as="geometry" />
        </mxCell>
        <mxCell id="0AhiDIyF9jXENDNeL1R9-13" style="edgeStyle=orthogonalEdgeStyle;rounded=0;orthogonalLoop=1;jettySize=auto;html=1;entryX=0.5;entryY=1;entryDx=0;entryDy=0;" edge="1" parent="1" source="0AhiDIyF9jXENDNeL1R9-5" target="0AhiDIyF9jXENDNeL1R9-2">
          <mxGeometry relative="1" as="geometry" />
        </mxCell>
        <mxCell id="0AhiDIyF9jXENDNeL1R9-30" value="M" style="edgeLabel;html=1;align=center;verticalAlign=middle;resizable=0;points=[];" vertex="1" connectable="0" parent="0AhiDIyF9jXENDNeL1R9-13">
          <mxGeometry x="-0.65" relative="1" as="geometry">
            <mxPoint as="offset" />
          </mxGeometry>
        </mxCell>
        <mxCell id="0AhiDIyF9jXENDNeL1R9-5" value="RECIBE" style="rhombus;whiteSpace=wrap;html=1;" vertex="1" parent="1">
          <mxGeometry x="260" y="260" width="80" height="80" as="geometry" />
        </mxCell>
        <mxCell id="0AhiDIyF9jXENDNeL1R9-16" style="edgeStyle=orthogonalEdgeStyle;rounded=0;orthogonalLoop=1;jettySize=auto;html=1;exitX=1;exitY=0.5;exitDx=0;exitDy=0;entryX=1;entryY=1;entryDx=0;entryDy=0;" edge="1" parent="1" source="0AhiDIyF9jXENDNeL1R9-14" target="0AhiDIyF9jXENDNeL1R9-2">
          <mxGeometry relative="1" as="geometry" />
        </mxCell>
        <mxCell id="0AhiDIyF9jXENDNeL1R9-32" value="N" style="edgeLabel;html=1;align=center;verticalAlign=middle;resizable=0;points=[];" vertex="1" connectable="0" parent="0AhiDIyF9jXENDNeL1R9-16">
          <mxGeometry x="-0.8519" y="3" relative="1" as="geometry">
            <mxPoint as="offset" />
          </mxGeometry>
        </mxCell>
        <mxCell id="0AhiDIyF9jXENDNeL1R9-17" style="edgeStyle=orthogonalEdgeStyle;rounded=0;orthogonalLoop=1;jettySize=auto;html=1;entryX=0;entryY=1;entryDx=0;entryDy=0;" edge="1" parent="1" source="0AhiDIyF9jXENDNeL1R9-14" target="0AhiDIyF9jXENDNeL1R9-1">
          <mxGeometry relative="1" as="geometry" />
        </mxCell>
        <mxCell id="0AhiDIyF9jXENDNeL1R9-31" value="N" style="edgeLabel;html=1;align=center;verticalAlign=middle;resizable=0;points=[];" vertex="1" connectable="0" parent="0AhiDIyF9jXENDNeL1R9-17">
          <mxGeometry x="-0.925" y="-2" relative="1" as="geometry">
            <mxPoint as="offset" />
          </mxGeometry>
        </mxCell>
        <mxCell id="0AhiDIyF9jXENDNeL1R9-14" value="CREA" style="rhombus;whiteSpace=wrap;html=1;" vertex="1" parent="1">
          <mxGeometry x="260" y="350" width="80" height="80" as="geometry" />
        </mxCell>
        <mxCell id="0AhiDIyF9jXENDNeL1R9-23" style="edgeStyle=orthogonalEdgeStyle;rounded=0;orthogonalLoop=1;jettySize=auto;html=1;entryX=1;entryY=0.5;entryDx=0;entryDy=0;" edge="1" parent="1" source="0AhiDIyF9jXENDNeL1R9-18" target="0AhiDIyF9jXENDNeL1R9-2">
          <mxGeometry relative="1" as="geometry">
            <Array as="points">
              <mxPoint x="560" y="560" />
              <mxPoint x="560" y="220" />
            </Array>
          </mxGeometry>
        </mxCell>
        <mxCell id="0AhiDIyF9jXENDNeL1R9-35" value="N" style="edgeLabel;html=1;align=center;verticalAlign=middle;resizable=0;points=[];" vertex="1" connectable="0" parent="0AhiDIyF9jXENDNeL1R9-23">
          <mxGeometry x="-0.8255" relative="1" as="geometry">
            <mxPoint as="offset" />
          </mxGeometry>
        </mxCell>
        <mxCell id="0AhiDIyF9jXENDNeL1R9-18" value="EDITA" style="rhombus;whiteSpace=wrap;html=1;" vertex="1" parent="1">
          <mxGeometry x="440" y="520" width="80" height="80" as="geometry" />
        </mxCell>
        <mxCell id="0AhiDIyF9jXENDNeL1R9-22" style="edgeStyle=orthogonalEdgeStyle;rounded=0;orthogonalLoop=1;jettySize=auto;html=1;entryX=1;entryY=0.5;entryDx=0;entryDy=0;" edge="1" parent="1" source="0AhiDIyF9jXENDNeL1R9-19" target="0AhiDIyF9jXENDNeL1R9-2">
          <mxGeometry relative="1" as="geometry">
            <Array as="points">
              <mxPoint x="530" y="460" />
              <mxPoint x="530" y="220" />
            </Array>
          </mxGeometry>
        </mxCell>
        <mxCell id="0AhiDIyF9jXENDNeL1R9-34" value="N" style="edgeLabel;html=1;align=center;verticalAlign=middle;resizable=0;points=[];" vertex="1" connectable="0" parent="0AhiDIyF9jXENDNeL1R9-22">
          <mxGeometry x="-0.7935" y="-2" relative="1" as="geometry">
            <mxPoint as="offset" />
          </mxGeometry>
        </mxCell>
        <mxCell id="0AhiDIyF9jXENDNeL1R9-19" value="ELIMINA" style="rhombus;whiteSpace=wrap;html=1;" vertex="1" parent="1">
          <mxGeometry x="440" y="420" width="80" height="80" as="geometry" />
        </mxCell>
        <mxCell id="0AhiDIyF9jXENDNeL1R9-45" style="edgeStyle=orthogonalEdgeStyle;rounded=0;orthogonalLoop=1;jettySize=auto;html=1;exitX=1;exitY=0.5;exitDx=0;exitDy=0;entryX=0;entryY=0.75;entryDx=0;entryDy=0;" edge="1" parent="1" source="0AhiDIyF9jXENDNeL1R9-36" target="0AhiDIyF9jXENDNeL1R9-1">
          <mxGeometry relative="1" as="geometry">
            <Array as="points">
              <mxPoint x="65" y="235" />
            </Array>
          </mxGeometry>
        </mxCell>
        <mxCell id="0AhiDIyF9jXENDNeL1R9-36" value="NUMERO" style="ellipse;whiteSpace=wrap;html=1;" vertex="1" parent="1">
          <mxGeometry x="5" y="240" width="60" height="30" as="geometry" />
        </mxCell>
        <mxCell id="0AhiDIyF9jXENDNeL1R9-44" style="edgeStyle=orthogonalEdgeStyle;rounded=0;orthogonalLoop=1;jettySize=auto;html=1;exitX=0.5;exitY=0;exitDx=0;exitDy=0;entryX=0.75;entryY=1;entryDx=0;entryDy=0;" edge="1" parent="1" source="0AhiDIyF9jXENDNeL1R9-37" target="0AhiDIyF9jXENDNeL1R9-1">
          <mxGeometry relative="1" as="geometry" />
        </mxCell>
        <mxCell id="0AhiDIyF9jXENDNeL1R9-37" value="PERSONAS" style="ellipse;whiteSpace=wrap;html=1;" vertex="1" parent="1">
          <mxGeometry x="120" y="270" width="90" height="30" as="geometry" />
        </mxCell>
        <mxCell id="0AhiDIyF9jXENDNeL1R9-43" style="edgeStyle=orthogonalEdgeStyle;rounded=0;orthogonalLoop=1;jettySize=auto;html=1;exitX=0.5;exitY=1;exitDx=0;exitDy=0;entryX=0.842;entryY=0.017;entryDx=0;entryDy=0;entryPerimeter=0;" edge="1" parent="1" source="0AhiDIyF9jXENDNeL1R9-38" target="0AhiDIyF9jXENDNeL1R9-1">
          <mxGeometry relative="1" as="geometry" />
        </mxCell>
        <mxCell id="0AhiDIyF9jXENDNeL1R9-38" value="PEDIDOS" style="ellipse;whiteSpace=wrap;html=1;" vertex="1" parent="1">
          <mxGeometry x="140" y="140" width="70" height="40" as="geometry" />
        </mxCell>
        <mxCell id="0AhiDIyF9jXENDNeL1R9-42" style="edgeStyle=orthogonalEdgeStyle;rounded=0;orthogonalLoop=1;jettySize=auto;html=1;exitX=0.5;exitY=1;exitDx=0;exitDy=0;entryX=0.167;entryY=0;entryDx=0;entryDy=0;entryPerimeter=0;" edge="1" parent="1" source="0AhiDIyF9jXENDNeL1R9-39" target="0AhiDIyF9jXENDNeL1R9-1">
          <mxGeometry relative="1" as="geometry" />
        </mxCell>
        <mxCell id="0AhiDIyF9jXENDNeL1R9-39" value="RECIBIDOS" style="ellipse;whiteSpace=wrap;html=1;" vertex="1" parent="1">
          <mxGeometry x="50" y="140" width="80" height="40" as="geometry" />
        </mxCell>
        <mxCell id="0AhiDIyF9jXENDNeL1R9-41" style="edgeStyle=orthogonalEdgeStyle;rounded=0;orthogonalLoop=1;jettySize=auto;html=1;exitX=1;exitY=0.5;exitDx=0;exitDy=0;" edge="1" parent="1" source="0AhiDIyF9jXENDNeL1R9-40">
          <mxGeometry relative="1" as="geometry">
            <mxPoint x="80" y="195" as="targetPoint" />
          </mxGeometry>
        </mxCell>
        <mxCell id="0AhiDIyF9jXENDNeL1R9-40" value="&lt;u&gt;_ID&lt;/u&gt;" style="ellipse;whiteSpace=wrap;html=1;" vertex="1" parent="1">
          <mxGeometry x="10" y="180" width="50" height="30" as="geometry" />
        </mxCell>
        <mxCell id="0AhiDIyF9jXENDNeL1R9-51" style="edgeStyle=orthogonalEdgeStyle;rounded=0;orthogonalLoop=1;jettySize=auto;html=1;entryX=0;entryY=0.5;entryDx=0;entryDy=0;" edge="1" parent="1" source="0AhiDIyF9jXENDNeL1R9-46" target="0AhiDIyF9jXENDNeL1R9-3">
          <mxGeometry relative="1" as="geometry" />
        </mxCell>
        <mxCell id="0AhiDIyF9jXENDNeL1R9-46" value="&lt;u&gt;_ID&lt;/u&gt;" style="ellipse;whiteSpace=wrap;html=1;" vertex="1" parent="1">
          <mxGeometry x="170" y="495" width="50" height="30" as="geometry" />
        </mxCell>
        <mxCell id="0AhiDIyF9jXENDNeL1R9-52" style="edgeStyle=orthogonalEdgeStyle;rounded=0;orthogonalLoop=1;jettySize=auto;html=1;exitX=0.5;exitY=0;exitDx=0;exitDy=0;entryX=0.2;entryY=1.033;entryDx=0;entryDy=0;entryPerimeter=0;" edge="1" parent="1" source="0AhiDIyF9jXENDNeL1R9-47" target="0AhiDIyF9jXENDNeL1R9-3">
          <mxGeometry relative="1" as="geometry" />
        </mxCell>
        <mxCell id="0AhiDIyF9jXENDNeL1R9-47" value="NOMBRE" style="ellipse;whiteSpace=wrap;html=1;" vertex="1" parent="1">
          <mxGeometry x="230" y="560" width="70" height="30" as="geometry" />
        </mxCell>
        <mxCell id="0AhiDIyF9jXENDNeL1R9-54" style="edgeStyle=orthogonalEdgeStyle;rounded=0;orthogonalLoop=1;jettySize=auto;html=1;exitX=0.5;exitY=0;exitDx=0;exitDy=0;entryX=0.808;entryY=1.033;entryDx=0;entryDy=0;entryPerimeter=0;" edge="1" parent="1" source="0AhiDIyF9jXENDNeL1R9-48" target="0AhiDIyF9jXENDNeL1R9-3">
          <mxGeometry relative="1" as="geometry" />
        </mxCell>
        <mxCell id="0AhiDIyF9jXENDNeL1R9-48" value="PASS" style="ellipse;whiteSpace=wrap;html=1;" vertex="1" parent="1">
          <mxGeometry x="310" y="560" width="50" height="30" as="geometry" />
        </mxCell>
        <mxCell id="0AhiDIyF9jXENDNeL1R9-72" style="edgeStyle=orthogonalEdgeStyle;rounded=0;orthogonalLoop=1;jettySize=auto;html=1;entryX=1;entryY=0;entryDx=0;entryDy=0;" edge="1" parent="1" source="0AhiDIyF9jXENDNeL1R9-55" target="0AhiDIyF9jXENDNeL1R9-2">
          <mxGeometry relative="1" as="geometry">
            <Array as="points">
              <mxPoint x="590" y="250" />
              <mxPoint x="590" y="190" />
            </Array>
          </mxGeometry>
        </mxCell>
        <mxCell id="0AhiDIyF9jXENDNeL1R9-55" value="NOMBRE" style="ellipse;whiteSpace=wrap;html=1;" vertex="1" parent="1">
          <mxGeometry x="615" y="230" width="60" height="40" as="geometry" />
        </mxCell>
        <mxCell id="0AhiDIyF9jXENDNeL1R9-63" style="edgeStyle=orthogonalEdgeStyle;rounded=0;orthogonalLoop=1;jettySize=auto;html=1;exitX=0;exitY=0.5;exitDx=0;exitDy=0;entryX=1;entryY=0;entryDx=0;entryDy=0;" edge="1" parent="1" source="0AhiDIyF9jXENDNeL1R9-56" target="0AhiDIyF9jXENDNeL1R9-2">
          <mxGeometry relative="1" as="geometry">
            <Array as="points">
              <mxPoint x="510" y="190" />
              <mxPoint x="510" y="190" />
            </Array>
          </mxGeometry>
        </mxCell>
        <mxCell id="0AhiDIyF9jXENDNeL1R9-56" value="NUMERO" style="ellipse;whiteSpace=wrap;html=1;" vertex="1" parent="1">
          <mxGeometry x="610" y="170" width="70" height="40" as="geometry" />
        </mxCell>
        <mxCell id="0AhiDIyF9jXENDNeL1R9-73" style="edgeStyle=orthogonalEdgeStyle;rounded=0;orthogonalLoop=1;jettySize=auto;html=1;entryX=0.833;entryY=-0.083;entryDx=0;entryDy=0;entryPerimeter=0;" edge="1" parent="1" source="0AhiDIyF9jXENDNeL1R9-57" target="0AhiDIyF9jXENDNeL1R9-2">
          <mxGeometry relative="1" as="geometry">
            <Array as="points">
              <mxPoint x="360" y="110" />
              <mxPoint x="450" y="110" />
            </Array>
          </mxGeometry>
        </mxCell>
        <mxCell id="0AhiDIyF9jXENDNeL1R9-57" value="FOTO" style="ellipse;whiteSpace=wrap;html=1;" vertex="1" parent="1">
          <mxGeometry x="330" y="50" width="60" height="40" as="geometry" />
        </mxCell>
        <mxCell id="0AhiDIyF9jXENDNeL1R9-64" style="edgeStyle=orthogonalEdgeStyle;rounded=0;orthogonalLoop=1;jettySize=auto;html=1;entryX=1;entryY=0;entryDx=0;entryDy=0;" edge="1" parent="1" source="0AhiDIyF9jXENDNeL1R9-58" target="0AhiDIyF9jXENDNeL1R9-2">
          <mxGeometry relative="1" as="geometry">
            <Array as="points">
              <mxPoint x="590" y="140" />
              <mxPoint x="590" y="190" />
            </Array>
          </mxGeometry>
        </mxCell>
        <mxCell id="0AhiDIyF9jXENDNeL1R9-58" value="PRECIO" style="ellipse;whiteSpace=wrap;html=1;" vertex="1" parent="1">
          <mxGeometry x="610" y="120" width="70" height="40" as="geometry" />
        </mxCell>
        <mxCell id="0AhiDIyF9jXENDNeL1R9-66" style="edgeStyle=orthogonalEdgeStyle;rounded=0;orthogonalLoop=1;jettySize=auto;html=1;" edge="1" parent="1" source="0AhiDIyF9jXENDNeL1R9-59">
          <mxGeometry relative="1" as="geometry">
            <mxPoint x="450" y="190" as="targetPoint" />
            <Array as="points">
              <mxPoint x="550" y="110" />
              <mxPoint x="450" y="110" />
              <mxPoint x="450" y="190" />
            </Array>
          </mxGeometry>
        </mxCell>
        <mxCell id="0AhiDIyF9jXENDNeL1R9-59" value="INGREDIENTES" style="ellipse;whiteSpace=wrap;html=1;" vertex="1" parent="1">
          <mxGeometry x="500" y="50" width="100" height="40" as="geometry" />
        </mxCell>
        <mxCell id="0AhiDIyF9jXENDNeL1R9-74" style="edgeStyle=orthogonalEdgeStyle;rounded=0;orthogonalLoop=1;jettySize=auto;html=1;entryX=0.833;entryY=-0.033;entryDx=0;entryDy=0;entryPerimeter=0;" edge="1" parent="1" source="0AhiDIyF9jXENDNeL1R9-60" target="0AhiDIyF9jXENDNeL1R9-2">
          <mxGeometry relative="1" as="geometry" />
        </mxCell>
        <mxCell id="0AhiDIyF9jXENDNeL1R9-60" value="&lt;u&gt;_ID&lt;/u&gt;" style="ellipse;whiteSpace=wrap;html=1;" vertex="1" parent="1">
          <mxGeometry x="500" y="130" width="50" height="30" as="geometry" />
        </mxCell>
        <mxCell id="0AhiDIyF9jXENDNeL1R9-71" style="edgeStyle=orthogonalEdgeStyle;rounded=0;orthogonalLoop=1;jettySize=auto;html=1;" edge="1" parent="1" source="0AhiDIyF9jXENDNeL1R9-61" target="0AhiDIyF9jXENDNeL1R9-2">
          <mxGeometry relative="1" as="geometry">
            <Array as="points">
              <mxPoint x="450" y="180" />
              <mxPoint x="450" y="180" />
            </Array>
          </mxGeometry>
        </mxCell>
        <mxCell id="0AhiDIyF9jXENDNeL1R9-61" value="CREATEDAT" style="ellipse;whiteSpace=wrap;html=1;" vertex="1" parent="1">
          <mxGeometry x="410" y="45" width="80" height="50" as="geometry" />
        </mxCell>
        <mxCell id="0AhiDIyF9jXENDNeL1R9-65" style="edgeStyle=orthogonalEdgeStyle;rounded=0;orthogonalLoop=1;jettySize=auto;html=1;exitX=0;exitY=0.5;exitDx=0;exitDy=0;entryX=1;entryY=0;entryDx=0;entryDy=0;" edge="1" parent="1" source="0AhiDIyF9jXENDNeL1R9-62" target="0AhiDIyF9jXENDNeL1R9-2">
          <mxGeometry relative="1" as="geometry">
            <Array as="points">
              <mxPoint x="590" y="85" />
              <mxPoint x="590" y="190" />
            </Array>
          </mxGeometry>
        </mxCell>
        <mxCell id="0AhiDIyF9jXENDNeL1R9-62" value="UPDATEDAT" style="ellipse;whiteSpace=wrap;html=1;" vertex="1" parent="1">
          <mxGeometry x="605" y="60" width="80" height="50" as="geometry" />
        </mxCell>
      </root>
    </mxGraphModel>
  </diagram>
</mxfile>
